 <svg  version="1.0" xmlns="http://www.w3.org/2000/svg"  width="300.000000pt" height="250.000000pt" viewBox="0 0 300.000000 250.000000"  preserveAspectRatio="xMidYMid meet">  <g transform="translate(0.000000,250.000000) scale(0.100000,-0.100000)" fill="#c89856" stroke="none"> <path d="M1129 2418 c-23 -40 -70 -120 -104 -178 l-61 -105 100 -177 101 -177 206 -1 207 0 102 176 c55 96 100 179 98 183 -2 4 -48 85 -103 179 l-99 172 -203 0 -202 0 -42 -72z m505 -130 c48 -83 84 -158 81 -165 -2 -8 -41 -77 -86 -153 l-81 -140 -176 0 -177 0 -88 152 -87 151 88 153 87 153 176 1 177 0 86 -152z"/> <path d="M351 1906 c-56 -96 -101 -177 -101 -181 0 -3 45 -84 101 -180 l101 -175 203 0 203 0 101 174 c56 95 101 177 101 182 0 5 -45 86 -99 179 l-99 170 -205 3 -205 2 -101 -174z m508 79 c13 -25 52 -93 87 -151 l63 -106 -87 -154 -87 -153 -180 0 -180 0 -84 149 c-46 82 -84 151 -85 153 0 3 37 73 84 156 l85 150 180 1 180 0 24 -45z"/> <path d="M1890 2038 c-13 -24 -59 -103 -102 -177 l-78 -134 102 -178 103 -179 205 0 205 0 99 174 c55 96 100 177 100 181 1 4 -44 85 -99 181 l-100 173 -206 1 -205 0 -24 -42z m491 -155 c46 -82 84 -152 84 -158 0 -5 -38 -76 -84 -157 l-83 -148 -178 0 -178 0 -86 150 c-47 82 -86 152 -86 156 0 3 39 73 86 155 l86 149 178 0 178 0 83 -147z"/> <path d="M1064 1513 l-100 -177 102 -176 102 -175 204 -3 205 -2 99 172 c54 94 100 175 102 179 2 4 -43 87 -98 183 l-102 176 -207 0 -206 -1 -101 -176z m570 -23 c47 -82 86 -152 86 -155 0 -3 -39 -73 -86 -155 l-87 -150 -176 0 -176 1 -88 153 -88 154 39 64 c21 35 60 102 87 150 l50 88 177 0 176 0 86 -150z"/> <path d="M351 1107 c-56 -95 -101 -177 -101 -180 0 -4 45 -86 101 -182 l101 -175 203 0 203 0 97 168 c53 92 100 171 105 175 4 5 -39 88 -95 185 l-103 177 -205 3 -205 2 -101 -173z m518 60 c19 -34 58 -102 87 -150 l53 -88 -87 -154 -87 -154 -180 0 -180 0 -84 149 c-46 82 -83 152 -84 155 0 4 38 74 84 156 l84 148 180 1 180 0 34 -63z"/> <path d="M1834 1183 c-32 -54 -78 -134 -104 -177 l-46 -80 102 -175 102 -176 205 -3 204 -2 94 162 c51 90 97 170 102 179 7 11 -16 60 -93 192 l-102 177 -204 0 -203 0 -57 -97z m520 -101 c47 -82 86 -152 86 -156 0 -4 -39 -74 -86 -156 l-86 -150 -177 0 -176 0 -73 128 c-40 70 -79 138 -88 152 -15 24 -12 30 73 177 l88 152 177 1 176 0 86 -148z"/> <path d="M1132 813 c-22 -38 -69 -118 -104 -179 l-64 -110 98 -170 c54 -93 98 -172 98 -176 0 -5 94 -8 209 -8 l209 0 102 176 c55 96 100 179 98 183 -2 4 -48 85 -102 179 l-100 172 -202 0 -203 0 -39 -67z m502 -133 c47 -83 86 -153 86 -157 0 -3 -39 -73 -86 -155 l-86 -148 -177 0 -176 0 -88 152 -87 151 88 153 87 153 176 1 176 0 87 -150z"/> </g> </svg> 